PathFileType	4	(X/Y/Z)	OpenSim_Sub03_CSStiffKnee_Accel.trc
DataRate	CameraRate	NumFrames	NumMarkers	Units	OrigDataRate	OrigDataStartFrame	OrigNumFrames
100	100	30	8	m	100	1364	3637
Frame#	Time	torso_imu_offset_imu	pelvis_imu_offset_imu	tibia_r_imu_offset_imu	femur_r_imu_offset_imu	tibia_l_imu_offset_imu	femur_l_imu_offset_imu	toes_r_imu_offset_imu	toes_l_imu_offset_imu
				X1	Y1	Z1	X2	Y2	Z2	X3	Y3	Z3	X4	Y4	Z4	X5	Y5	Z5	X6	Y6	Z6	X7	Y7	Z7	X8		Y8	Z8	

1364	13.63000000	8.53387400	0.48934400	4.89313500	8.25679400	2.34777200	0.84587400	10.08713200	-0.70713100	1.20445000	9.78575100	-1.46730600	0.65000500	8.25643200	-2.04392700	1.81131300	7.07657300	2.64384800	0.13407500	5.73598200	-1.77050900	8.22155600	10.14209600	-1.56425900	2.94242200
1365	13.64000000	8.41615600	0.49775900	4.89488200	8.44641700	2.34193000	0.74354400	10.12897500	-0.66960200	1.49718600	9.91243200	-1.55310200	0.66212400	8.05250300	-2.13911600	2.01160900	7.39224700	2.27106200	0.20453800	6.09490000	-2.05924000	7.93918400	10.06001300	-0.70157000	0.24158600
1366	13.65000000	8.44405500	0.56890300	5.01134200	8.42730300	2.27383900	0.80232200	10.18390800	-0.80457800	1.29543600	9.97840800	-1.94960700	0.79326500	8.56123000	-1.26717400	2.17108400	7.73158800	2.09833100	0.44154600	5.54832300	-1.77748500	8.42425800	13.09310300	-2.21189700	-1.83396500
1367	13.66000000	8.64268700	0.66542100	5.09216500	8.57948000	2.08262100	0.81582300	10.77499500	-1.15707600	1.74337300	10.02776900	-2.07339800	0.80065200	8.99048400	-1.87847200	2.58904700	7.99007100	1.75807600	0.56714400	5.39648500	-2.48512100	8.34785500	16.50263500	-2.01865700	-4.36899200
1368	13.67000000	8.83952400	0.65976200	5.13130800	8.75388600	1.71664200	0.98043100	11.03844700	-1.74137400	1.93818400	10.33883000	-2.18019200	0.87405600	9.45645100	-3.55344900	2.06547400	8.51418300	1.38802900	0.50769600	5.66588200	-2.53019100	8.52847000	20.75900800	-2.20613400	-11.49236200
1369	13.68000000	9.10858500	0.68953900	5.14521200	9.06629900	1.57258100	1.39212700	11.48769000	-2.31678500	2.17623200	10.22133300	-2.54327100	0.89658600	10.96674200	-4.62558500	0.61901000	9.85307700	1.30519200	0.49588800	5.33696200	-2.55463400	8.78978700	13.13361000	-14.49847400	-17.04608300
1370	13.69000000	9.78561300	0.67975900	5.17618200	9.66645400	1.23437500	2.34914400	12.66450200	-3.30197200	1.96126900	10.13379200	-3.05968400	0.86426500	13.58125900	-6.73420300	-1.87250500	13.48648900	1.26551100	0.41532000	5.24443500	-3.08057700	9.25799000	27.23504300	-3.25760300	17.34461700
1371	13.70000000	11.11866100	0.83466500	5.32615100	10.64212000	0.55293500	4.02839400	14.64593500	-4.57667300	1.68979200	10.31474500	-3.79173800	0.63757000	14.09375700	-5.47408800	-5.49618800	18.48698500	1.15579800	-0.45276700	4.89529400	-3.65666800	10.00010700	25.07951200	15.83615900	34.06528300
1372	13.71000000	13.19815500	1.20126400	5.71526000	12.03536800	-0.55600900	5.55027600	17.03597500	-5.42844300	1.06613200	11.14746800	-4.47115600	0.07346100	16.42515800	3.97919600	0.37984300	17.39193000	1.32865900	-2.58157400	4.40258900	-4.57372700	10.74499000	14.19039800	5.33028700	12.68690800
1373	13.72000000	14.21073800	1.71432500	6.21401500	14.05090400	-1.79292500	5.97420600	18.60420700	-4.78181700	1.00960600	13.17518000	-5.16341200	-0.65574500	18.98826200	1.68926400	1.55622600	13.79213100	-1.02490800	-3.44395000	3.85752100	-6.89334800	11.13284200	19.62364400	1.18570600	16.22498400
1374	13.73000000	13.30420800	2.24798600	6.55696100	15.70158800	-2.31896100	5.70375500	18.69227100	-3.33999700	0.90608500	13.81055700	-4.85967500	-1.12767700	13.55990400	-6.66930600	-2.86317700	11.22929900	-2.05473900	-2.79968900	4.58492900	-6.56323700	12.19757100	8.63284600	-8.34669000	12.23563200
1375	13.74000000	11.94262000	2.93420000	6.72723300	15.78139800	-1.37441500	5.39326600	17.90887300	-2.50586600	0.61759900	12.73484800	-4.51341700	0.07871300	10.18720500	-14.28616500	-1.54474300	10.50338200	-1.20565700	-2.49252400	4.01634700	-8.13512200	11.30852400	9.01234100	-1.32796800	10.46050500
1376	13.75000000	10.98358300	3.30723800	6.89348000	13.68540000	0.07455400	5.10695600	16.23344900	-3.61413900	0.64040000	11.70037000	-2.84957100	1.91286200	9.57359200	-12.80572000	0.97659500	10.34306500	-2.53692300	-1.53723800	5.80860500	-10.09364500	9.81503200	7.38661600	-1.24404200	10.37370400
1377	13.76000000	10.18079600	3.25160500	6.72774300	11.70321400	0.71389700	4.54526900	13.78231800	-4.29904600	-0.25870700	11.38467200	-1.72920800	3.20105700	8.51692200	-6.71690400	1.73708900	10.17229300	-4.97721700	-1.14108300	10.82594800	-9.52054100	11.69575700	6.05199400	-0.77893400	10.81027400
1378	13.77000000	9.58796200	3.11645200	6.29011600	10.33916800	0.64959800	4.41655000	11.53769500	-1.76022100	-2.32624600	11.95534400	-0.03884500	4.00016900	8.70438800	-2.01016500	1.44939900	10.17873200	-6.02712900	-2.38517000	13.41755200	-9.60390900	12.13336900	6.39736900	0.61404800	10.98824200
1379	13.78000000	9.41587000	3.02689600	5.72340600	9.46224100	0.22792200	4.33855300	10.39688500	3.09901300	-3.99173300	12.14092800	1.52865900	4.58231700	10.74790900	-3.92455800	-1.20355600	10.59826300	-5.66458300	-2.78956900	16.98406600	-5.79564300	13.75373100	5.79291400	0.75722600	11.35942700
1380	13.79000000	9.48147000	2.90091200	5.31681900	9.07300700	-0.35699400	4.01387900	10.06432500	8.24857100	-4.26324400	12.53927100	2.53460300	4.47373600	11.66156100	-7.04134800	-2.50086100	10.31518300	-3.99161000	-3.27669600	13.14623000	-4.04600900	11.66992000	5.70334300	1.06544700	11.37655000
1381	13.80000000	9.57232700	2.64067100	5.23223400	9.15099300	-1.09881100	3.85455100	9.83148700	11.15084800	-5.02187800	12.78444300	3.12932900	3.83657500	10.25503000	-6.46273500	-2.13317700	10.25874600	-1.79093500	-4.12013100	15.66846000	-2.80682900	14.28445200	6.20980900	1.41065700	10.71459900
1382	13.81000000	9.44543000	2.43457400	5.15370300	9.55524900	-1.88549800	3.67907200	10.78850400	13.90518500	-4.49993600	13.15800200	4.07364600	2.57350700	10.14388500	-5.26927000	-2.63402000	9.70818400	-0.18206900	-4.02827400	21.16770800	-1.46648600	22.42903000	6.08693400	1.62345000	10.58091500
1383	13.82000000	9.14270300	2.29199800	5.21785600	10.04126700	-2.44586300	3.49835800	10.01968400	16.11376500	-2.68161000	13.35474400	4.76056200	1.24915500	10.41672900	-3.49413600	-2.08151200	9.52807200	-0.07562800	-3.43368900	4.44136700	-4.48673000	18.66259400	6.67487700	2.00668900	10.35830300
1384	13.83000000	9.04612300	2.15101800	5.41765000	10.42310900	-2.55981400	3.49351000	7.66359100	12.98149300	-0.98721000	13.50668100	2.46072600	0.72624700	10.37097800	-1.18924800	-2.21655500	9.25948800	-0.78871700	-3.01336700	-2.76796600	-10.33002100	10.10256500	5.92955000	1.53952500	10.74845100
1385	13.84000000	9.12406400	2.09270900	5.61607300	10.88284400	-2.07436600	3.61319600	5.88837800	5.49803800	3.66194000	12.18449000	-0.63125900	0.79065200	10.74520400	-0.77756900	-1.80092100	9.22226000	-1.57112200	-2.90251700	-4.74373300	-9.76213600	7.47720800	5.70849100	1.90101700	10.87811600
1386	13.85000000	8.91906400	1.87434500	5.83887900	11.14553000	-1.37779800	3.71561800	3.69448300	0.24486100	2.42110100	10.60310700	-2.71012000	1.53689900	10.46731200	-0.64601300	-1.81492800	9.54270400	-1.80149200	-2.65344300	-0.34043600	-6.04864400	10.22861000	5.58059600	1.91917500	10.97605500
1387	13.86000000	8.37526000	1.70582500	6.05338100	11.07161600	-0.65673900	3.71565000	3.76456300	-0.13692100	1.21533600	9.50459100	-3.64891000	2.25024400	10.10457000	-0.22424400	-1.34669800	9.34921200	-1.60647000	-2.28531600	-0.16125100	-6.89363700	10.33374900	6.20915400	1.93314800	10.43604300
1388	13.87000000	7.92991700	1.69950100	5.99822100	10.58218000	-0.17999000	3.80096700	2.80078400	1.59698400	0.34227500	9.29206700	-3.58769100	2.51221800	9.51293300	0.36046600	-0.33863000	8.93418500	-0.97239300	-1.80547000	-1.73571300	-8.45870300	8.58896900	5.72796500	1.46711000	10.53646400
1389	13.88000000	7.82003000	1.60689800	5.77306100	9.63625300	-0.21934500	3.65761500	3.48163100	2.24713500	1.35215500	9.28120000	-2.89775900	2.14534800	9.11914200	0.95536400	0.03214100	9.03320100	-0.35851500	-1.07604700	-2.02365400	-7.31395300	7.96605000	5.88428200	1.23163500	10.40848200
1390	13.89000000	7.71223600	1.49803100	5.77311800	8.40621800	-0.38932600	3.49126200	4.15701700	3.09003200	1.58387000	9.31943200	-2.37984300	1.63979000	9.07862700	1.77350300	0.22644300	9.13490700	0.08498300	-0.82643500	-0.86319200	-5.47695400	8.81937600	5.97178600	0.79446200	10.29448500
1391	13.90000000	7.81353200	1.36769600	5.72772300	7.35836500	-0.78024000	3.32476900	4.76501900	4.08727800	1.20823800	8.95658900	-1.63334600	1.30960500	9.46695500	2.02217900	0.09461200	9.10633700	0.59523200	-0.83036300	0.16717100	-3.90845700	9.75289000	6.22112200	0.94280500	10.13530900
1392	13.91000000	7.78589700	1.35795800	5.45988700	6.73020600	-1.15566200	3.20847000	5.19007600	4.76553000	0.58918300	8.16238200	-1.04275400	1.45362300	9.38557800	1.39400700	-0.27216800	9.02343100	0.93711700	-1.38288800	0.97927200	-2.74037200	10.10819700	5.77018800	1.24448400	10.44385300
1393	13.92000000	7.80745300	1.33981100	5.28691100	6.44400000	-1.48630500	3.06026800	5.40220900	5.49293500	0.62526500	8.11233400	-0.40217600	1.73955600	9.34616000	1.17052000	-0.58833300	8.97996400	1.03424600	-1.53652900	1.77005000	-1.64265400	10.02156900	5.40207400	1.56236000	10.63094100
